<svg version="1" xmlns="http://www.w3.org/2000/svg" width="645.333" height="645.333" viewBox="0 0 484.000000 484.000000"><path d="M227 1.2c-2.5.5-5.4 1.1-6.5 1.3-12.9 2.2-36.2 14.6-51.4 27.3-8.3 6.9-23.2 21.8-29.7 29.7-2.7 3.3-5.1 6.2-5.4 6.5-.7.7-9.7 13.1-14.4 19.7-2 2.9-3.6 5.7-3.6 6.2s-.4 1.1-.8 1.3c-1.6.6-25.4 43.6-25.3 45.5.1.6-4.1 10.1-5.4 12.5-.9 1.5-1.6 3-1.5 3.3 0 .3-.6 2.1-1.4 4-4.4 10.5-14.7 43.4-17.1 54.5-3.1 14.2-4.5 21.2-4.9 24.5-.3 2.2-.8 5.1-1 6.5-.6 3.3-1.3 8.7-2.3 18-1.6 14.6-.8 56.8 1.2 67.2.3 1.3.8 4.3 1.1 6.8.3 2.5.8 5.3 1 6.2.3 1 .7 3 1 4.5.9 5.6 5.8 22 9.1 30.7 19.4 51.3 59.7 86.6 114.3 100 10.2 2.5 12.1 2.9 20.5 4.1 2.3.3 5.2.8 6.5 1.1 4.1 1 46 1.2 53.8.3 6.8-.7 9.4-1.1 18.2-2.5 6.9-1.1 20.5-4.6 29.3-7.5 38.1-12.7 69-37 89.4-70.4 1.2-1.9 10.3-20.5 12.3-25 2.5-5.5 8-24.2 9.5-32 4.5-23.5 5-29.2 5-55 0-19.6-.6-30.8-1.9-38.5-.3-1.4-.9-5.7-1.5-9.5-2-12.8-2.2-14-3.3-18-.5-2.2-1.2-5.1-1.5-6.5-.8-4.4-7.3-27.2-10.4-36.4-14.2-42-37-84.1-62.9-116-15.1-18.6-36.9-38.5-53-48.3-11.1-6.8-25.2-12.9-34.5-14.9-.5-.1-2.3-.5-4-.9C250.3.4 231.7.2 227 1.2zm29.2 13.5c18.2 4.2 33.7 12.2 51.8 26.7 4.1 3.3 7.7 6.1 7.9 6.3.2.2.2.5-.1.9-.3.3-3.2-1.7-6.4-4.3-19.7-16.2-39.6-26.1-57.8-28.9-12.2-1.8-29.3 0-38.6 4.1-.3.2-1.5.6-2.8 1-5.2 1.7-16.6 7.7-23.6 12.4-16.5 11.1-34.2 28.2-47.1 45.4-2.7 3.6-5.4 6.6-5.8 6.7-2.1.1 13.1-17.8 25.8-30.5 23.1-23.1 42.3-34.8 65.6-40 8.1-1.8 23-1.7 31.1.2zM398.4 179c.5 1.7.4 2-.2 1-.5-.8-1.3-2.6-1.6-4-.5-1.7-.4-2 .2-1 .5.8 1.3 2.6 1.6 4zm2.4 7.5c-.3.3-.9-.2-1.2-1.2-.6-1.4-.5-1.5.5-.6.7.7 1 1.5.7 1.8zm2.1 6c0 .5-.4.3-.9-.5s-.9-2.2-.9-3c0-1.6 1.7 1.6 1.8 3.5zm1.5 4.1c.3.8.2 1.2-.4.9-.6-.3-1-1-1-1.6 0-1.4.7-1.1 1.4.7zm2.6 8.9c0 .5-.5.3-1-.5s-1-2-1-2.5c0-.6.5-.3 1 .5s1 1.9 1 2.5zm3.4 13.1c.3.8.2 1.2-.4.9-.6-.3-1-1-1-1.6 0-1.4.7-1.1 1.4.7z"/></svg>